<mxfile host="app.diagrams.net" modified="2024-01-06T18:37:18.773Z" agent="Mozilla/5.0 (Macintosh; Intel Mac OS X 10_15_7) AppleWebKit/537.36 (KHTML, like Gecko) Chrome/120.0.0.0 Safari/537.36" version="22.1.17" etag="rg3vXXtKBljyxCmLuijF" type="github">
  <diagram name="Page-1" id="nvyk1HMncd6n8Ns3K7nS">
    <mxGraphModel>
      <root>
        <mxCell id="0" />
        <mxCell id="1" parent="0" />
      </root>
    </mxGraphModel>
  </diagram>
</mxfile>
